<svg width="100" height="100" viewBox="0 0 100 100" fill="none" xmlns="http://www.w3.org/2000/svg">
  <!-- Sunbeams -->
  <path d="M 27.16 50.64 L 12.05 45.35 L 10.81 49.98 L 26.54 52.95 Z" fill="#FFC72C" />
  <path d="M 29.84 44.98 L 16.62 35.96 L 14.22 40.11 L 28.64 47.05 Z" fill="#FFC72C" />
  <path d="M 33.90 40.20 L 23.46 28.07 L 20.07 31.46 L 32.20 41.90 Z" fill="#FFC72C" />
  <path d="M 39.05 36.64 L 32.11 22.22 L 27.96 24.62 L 36.98 37.84 Z" fill="#FFC72C" />
  <path d="M 44.95 34.54 L 41.98 18.81 L 37.35 20.05 L 42.64 35.16 Z" fill="#FFC72C" />
  <path d="M 51.20 34.03 L 52.40 18.07 L 47.60 18.07 L 48.80 34.03 Z" fill="#FFC72C" />
  <path d="M 57.36 35.16 L 62.65 20.05 L 58.02 18.81 L 55.05 34.54 Z" fill="#FFC72C" />
  <path d="M 63.02 37.84 L 72.04 24.62 L 67.89 22.22 L 60.95 36.64 Z" fill="#FFC72C" />
  <path d="M 67.80 41.90 L 79.93 31.46 L 76.54 28.07 L 66.10 40.20 Z" fill="#FFC72C" />
  <path d="M 71.36 47.05 L 85.78 40.11 L 83.38 35.96 L 70.16 44.98 Z" fill="#FFC72C" />
  <path d="M 73.46 52.95 L 89.19 49.98 L 87.95 45.35 L 72.84 50.64 Z" fill="#FFC72C" />

  <!-- Lighthouse Body -->
  <g>
    <!-- Base -->
    <path d="M 42 76 Q 46.5 60 46.5 42 L 53.5 42 Q 53.5 60 58 76 Z" fill="#083D41" />
    
    <!-- Balcony/Platform -->
    <path d="M 43.5 42 L 56.5 42 L 56.5 39.5 L 43.5 39.5 Z" fill="#083D41" />
    
    <!-- Lantern Room Tower -->
    <path d="M 46.5 39.5 L 53.5 39.5 L 53.5 33 L 46.5 33 Z" fill="#083D41" />
    
    <!-- Lantern Room Windows -->
    <rect x="47.5" y="34.5" width="1" height="3" fill="#FFC72C" rx="0.3" />
    <rect x="49.5" y="34.5" width="1" height="3" fill="#FFC72C" rx="0.3" />
    <rect x="51.5" y="34.5" width="1" height="3" fill="#FFC72C" rx="0.3" />
    
    <!-- Dome Roof -->
    <path d="M 45.5 33 Q 50 27 54.5 33 Z" fill="#083D41" />
    
    <!-- Spire/Finial -->
    <line x1="50" y1="27.5" x2="50" y2="25" stroke="#083D41" stroke-width="0.8" />
    <circle cx="50" cy="24.5" r="0.8" fill="#083D41" />
  </g>

  <!-- Waves -->
  <path d="M 32 74 C 42 61.5 48 57 48 57 C 48 57 52.5 63 48.5 71 C 44 79.5 52 83.5 60 79.5 C 67 76 72 79.5 75.5 81.5 C 70.5 89.5 52.5 93 32 74 Z" fill="#00B2E2" />
</svg>